<?xml version="1.0" standalone="no"?>
<!DOCTYPE svg PUBLIC "-//W3C//DTD SVG 20010904//EN"
 "http://www.w3.org/TR/2001/REC-SVG-20010904/DTD/svg10.dtd">
<svg version="1.0" xmlns="http://www.w3.org/2000/svg"
 width="700.000000pt" height="700.000000pt" viewBox="0 0 700.000000 700.000000"
 preserveAspectRatio="xMidYMid meet">
<metadata>
Created by potrace 1.11, written by Peter Selinger 2001-2013
</metadata>
<g transform="translate(0.000000,700.000000) scale(0.100000,-0.100000)"
fill="#000000" stroke="none">
<path d="M0 3500 l0 -3500 3500 0 3500 0 0 3500 0 3500 -3500 0 -3500 0 0
-3500z m4961 1310 l1450 -1305 -435 -3 -436 -2 0 -1165 0 -1165 -875 0 -875 0
0 875 0 875 -290 0 -290 0 0 -875 0 -875 -875 0 -875 0 0 1165 0 1165 -436 2
-435 3 1453 1308 c799 719 1456 1306 1461 1304 5 -1 661 -590 1458 -1307z"/>
<path d="M2766 4678 l-726 -653 0 -1137 0 -1138 290 0 290 0 0 875 0 875 880
0 880 0 0 -875 0 -875 290 0 290 0 0 1138 0 1137 -721 648 c-396 356 -726 650
-733 653 -8 3 -313 -264 -740 -648z"/>
</g>
</svg>
